<svg width="44" height="44" viewBox="0 0 44 44" fill="none" xmlns="http://www.w3.org/2000/svg">
<path fill-rule="evenodd" clip-rule="evenodd" d="M8.06066 35.9518C7.47487 35.366 7.47487 34.4162 8.06066 33.8305C9.5239 32.3672 11.185 30.986 12.7791 29.6605C13.6662 28.9229 14.5324 28.2026 15.3323 27.495C20.7429 22.7087 25.8328 17.5521 30.9292 12.3471C31.2307 12.0391 31.4992 11.7351 31.7996 11.3949C32.0364 11.1267 32.293 10.836 32.6015 10.5031C33.2206 9.83494 33.9667 9.09605 34.8181 8.5668C35.5217 8.12945 36.4466 8.34526 36.8839 9.04883C37.3213 9.7524 37.1055 10.6773 36.4019 11.1147C35.9061 11.4229 35.383 11.9152 34.802 12.5421C34.6054 12.7543 34.3783 13.0099 34.1429 13.275C33.7791 13.6845 33.3953 14.1165 33.0727 14.4459C27.9809 19.6463 22.8215 24.8753 17.32 29.742C16.3664 30.5856 15.4329 31.3599 14.5207 32.1166C13.0152 33.3654 11.5674 34.5663 10.182 35.9518C9.59619 36.5376 8.64645 36.5376 8.06066 35.9518Z" fill="#231F20"/>
<path fill-rule="evenodd" clip-rule="evenodd" d="M29.784 27.0178C31.8327 28.7557 33.9378 30.5414 35.8763 32.4798C36.4621 33.0656 36.4621 34.0154 35.8763 34.6012C35.2905 35.1869 34.3408 35.1869 33.755 34.6012C31.9117 32.7579 29.9381 31.0835 27.9115 29.3641C27.2497 28.8026 26.5822 28.2363 25.9117 27.6578C21.8123 24.1203 17.9036 20.385 14.0231 16.6766C13.3149 15.9998 12.6077 15.3239 11.9004 14.6503C11.1803 13.9645 10.4712 13.2481 9.78106 12.5508C9.4988 12.2656 9.21971 11.9836 8.94434 11.7082C8.35855 11.1224 8.35855 10.1727 8.94434 9.58691C9.53013 9.00112 10.4799 9.00112 11.0657 9.58691C11.3651 9.88632 11.6578 10.1821 11.9473 10.4746C12.6239 11.1582 13.283 11.8242 13.9694 12.4779C14.6842 13.1587 15.3965 13.8394 16.1076 14.5189C19.9893 18.2282 23.835 21.9032 27.8717 25.3865C28.4989 25.9277 29.1386 26.4704 29.784 27.0178Z" fill="#231F20"/>
</svg>
