<svg width="44" height="44" viewBox="0 0 44 44" fill="none" xmlns="http://www.w3.org/2000/svg">
<path d="M22 4.125C18.4647 4.125 15.0087 5.17335 12.0692 7.13748C9.12966 9.10161 6.83858 11.8933 5.48566 15.1595C4.13274 18.4258 3.77876 22.0198 4.46847 25.4872C5.15818 28.9547 6.86061 32.1397 9.36047 34.6395C11.8603 37.1394 15.0454 38.8418 18.5128 39.5315C21.9802 40.2212 25.5742 39.8673 28.8405 38.5143C32.1067 37.1614 34.8984 34.8703 36.8625 31.9308C38.8267 28.9913 39.875 25.5353 39.875 22C39.87 17.2608 37.9851 12.7171 34.634 9.36599C31.2829 6.01487 26.7392 4.13 22 4.125ZM29.8478 18.8478L20.2228 28.4728C20.0951 28.6007 19.9435 28.7021 19.7766 28.7713C19.6096 28.8405 19.4307 28.8761 19.25 28.8761C19.0693 28.8761 18.8904 28.8405 18.7235 28.7713C18.5565 28.7021 18.4049 28.6007 18.2772 28.4728L14.1522 24.3478C13.8942 24.0898 13.7492 23.7399 13.7492 23.375C13.7492 23.0101 13.8942 22.6602 14.1522 22.4022C14.4102 22.1442 14.7601 21.9992 15.125 21.9992C15.4899 21.9992 15.8398 22.1442 16.0978 22.4022L19.25 25.5561L27.9022 16.9022C28.0299 16.7744 28.1816 16.6731 28.3485 16.604C28.5154 16.5348 28.6943 16.4992 28.875 16.4992C29.0557 16.4992 29.2346 16.5348 29.4015 16.604C29.5684 16.6731 29.7201 16.7744 29.8478 16.9022C29.9756 17.0299 30.0769 17.1816 30.146 17.3485C30.2152 17.5154 30.2508 17.6943 30.2508 17.875C30.2508 18.0557 30.2152 18.2346 30.146 18.4015C30.0769 18.5684 29.9756 18.7201 29.8478 18.8478Z" fill="#72A82C"/>
</svg>
