<svg width="144" height="22" viewBox="0 0 144 22" fill="none" xmlns="http://www.w3.org/2000/svg">
<path d="M0.747263 16.7432L0.713297 14.5246V1.69399C0.713297 1.24954 0.498176 0.888889 0.067933 0.612022L0.407598 0.393443C0.837841 0.67031 1.39829 0.808743 2.08894 0.808743H16.7455C19.0892 0.808743 20.6743 0.852459 21.5008 0.939891C22.3386 1.02732 23.0689 1.12568 23.6916 1.23497C24.3144 1.33698 24.8352 1.46084 25.2541 1.60656C25.673 1.75228 26.1033 1.93807 26.5448 2.16393C26.9864 2.3898 27.3374 2.64481 27.5978 2.92896C28.1979 3.5847 28.4979 4.32058 28.4979 5.13661C28.4979 5.94535 28.3564 6.63752 28.0733 7.21311C27.8016 7.78142 27.36 8.29144 26.7486 8.74317C25.4805 9.69035 23.3237 10.1639 20.278 10.1639H10.9202C10.2183 10.1639 9.65215 10.0255 9.22191 9.74863L8.86526 9.95628C9.31815 10.2477 9.54459 10.612 9.54459 11.0492V14.5246C9.54459 15.0856 9.53327 15.7741 9.51062 16.5902L8.74638 16.6339C8.59919 15.8178 8.40671 15.4098 8.16895 15.4098H2.08894C1.95307 15.4098 1.83985 15.5847 1.74928 15.9344C1.67002 16.2914 1.63039 16.6302 1.63039 16.9508C1.63039 17.2787 1.73795 17.8324 1.95307 18.612C2.1682 19.3916 2.27576 19.9381 2.27576 20.2514C2.27576 20.9217 1.89646 21.2568 1.13788 21.2568C0.379293 21.2568 0 20.9144 0 20.2295C0 19.9016 0.124544 19.3224 0.373632 18.4918C0.622719 17.6612 0.747263 17.0783 0.747263 16.7432ZM9.54459 5.34426V5.98907C9.54459 6.41894 9.31815 6.7796 8.86526 7.07104L9.22191 7.30055C9.66347 7.01639 10.2296 6.87432 10.9202 6.87432H16.4228C17.5664 6.87432 18.2513 6.83424 18.4778 6.7541C18.7042 6.66667 18.8967 6.57924 19.0552 6.4918C19.3269 6.33151 19.4628 6.102 19.4628 5.80328C19.4628 5.50455 19.4119 5.28597 19.31 5.14754C19.2194 5.00182 19.0835 4.88889 18.9024 4.80874C18.7212 4.7286 18.5401 4.66302 18.3589 4.61202C18.1777 4.56102 17.957 4.52459 17.6966 4.50273C17.3342 4.47359 16.9323 4.45902 16.4907 4.45902H10.9202C10.2183 4.45902 9.65215 4.32058 9.22191 4.04372L8.86526 4.25137C9.31815 4.54281 9.54459 4.9071 9.54459 5.34426ZM5.46861 16.153L5.91017 18.7432C5.91017 19.1876 5.65542 19.4098 5.14593 19.4098C4.64775 19.4098 4.39866 19.184 4.39866 18.7322C4.39866 18.4699 4.50056 18.0109 4.70436 17.3552C4.91948 16.7067 5.02704 16.2805 5.02704 16.0765C5.02704 15.8798 5.02138 15.6248 5.01006 15.3115C5.01006 14.9982 5.01006 14.7359 5.01006 14.5246L5.77431 15.1038C5.69505 15.1038 5.62146 15.2204 5.55352 15.4536C5.49691 15.694 5.46861 15.9271 5.46861 16.153Z" fill="#231F20"/>
<path d="M56.8217 3.06011L56.9745 8.64481C56.9745 10.5902 56.6009 12.0146 55.8536 12.918C55.1517 13.7778 54.1497 14.4226 52.8476 14.8525C51.3644 15.3479 49.3943 15.6685 46.9374 15.8142V17.8579L47.1073 18.9836C47.1073 19.2313 46.9997 19.3552 46.7846 19.3552C46.5695 19.3552 46.4619 19.1148 46.4619 18.6339L46.5638 16.8525C46.5638 16.0656 46.1845 15.6721 45.4259 15.6721C44.8372 15.6721 44.5428 15.9818 44.5428 16.6011C44.5428 16.6011 44.5711 16.918 44.6277 17.5519C44.6277 17.7705 44.6956 18.0874 44.8315 18.5027C44.9787 18.9253 45.0523 19.224 45.0523 19.3989C45.0523 19.5738 44.9957 19.7195 44.8825 19.8361C44.7692 19.9526 44.6051 20.0109 44.3899 20.0109C44.1748 20.0109 44.0106 19.949 43.8974 19.8251C43.7955 19.7086 43.7446 19.5665 43.7446 19.3989C43.7446 19.2313 43.8182 18.9545 43.9654 18.5683C44.1239 18.1894 44.2031 17.9454 44.2031 17.8361C44.2031 17.7268 44.2031 17.6138 44.2031 17.4973C44.2031 17.388 44.1975 17.275 44.1861 17.1585C44.1748 17.0419 44.1465 16.8962 44.1012 16.7213C44.0107 16.357 43.7389 16.1749 43.286 16.1749C42.4482 16.1749 42.0293 16.7067 42.0293 17.7705V18.2732C42.0293 18.5428 42.1312 18.9362 42.335 19.4536C42.5388 19.9709 42.6407 20.3424 42.6407 20.5683C42.6407 21.1293 42.3576 21.4098 41.7915 21.4098C41.5084 21.4098 41.282 21.3333 41.1122 21.1803C40.9537 21.0273 40.8744 20.8306 40.8744 20.5902C40.8744 20.3497 40.965 19.9417 41.1461 19.3661C41.3386 18.7905 41.4349 18.3534 41.4349 18.0546V15.8798C38.2194 15.7851 35.8077 15.4827 34.2 14.9727C31.3921 14.0984 29.9485 12.4372 29.8693 9.98907C29.8466 9.31148 29.8353 8.30237 29.8353 6.96175L29.8693 1.91257C29.8693 1.4827 29.6485 1.12204 29.2069 0.830601L29.5636 0.612022C29.9825 0.888889 30.5429 1.02732 31.2449 1.02732H37.257C37.9476 1.02732 38.5081 0.888889 38.9383 0.612022L39.295 0.830601C38.8647 1.11475 38.6496 1.47541 38.6496 1.91257L38.6836 7.53005C38.6836 8.61566 38.7289 9.30419 38.8194 9.59563C38.91 9.88707 39.0062 10.1566 39.1082 10.4044C39.2214 10.6448 39.3516 10.8379 39.4988 10.9836C39.6573 11.1293 39.8554 11.286 40.0932 11.4536C40.3309 11.6138 40.6027 11.7377 40.9084 11.8251C41.6217 12.0291 42.318 12.1311 42.9973 12.1311C43.688 12.1311 44.2201 12.1129 44.5937 12.0765C44.9787 12.0328 45.3127 11.9672 45.5958 11.8798C45.8901 11.7851 46.1505 11.6867 46.377 11.5847C46.6147 11.4754 46.8129 11.3406 46.9714 11.1803C47.1412 11.0128 47.2884 10.8561 47.413 10.7104C47.5375 10.5574 47.6337 10.3679 47.7017 10.1421C47.7809 9.91621 47.8432 9.71949 47.8885 9.55191C47.9338 9.37705 47.9677 9.15847 47.9904 8.89618C48.0244 8.49545 48.0413 8.04007 48.0413 7.53005L48.0753 1.91257C48.0753 1.46812 47.8658 1.10747 47.4469 0.830601L47.7696 0.612022C48.1999 0.888889 48.766 1.02732 49.4679 1.02732H55.48C56.1933 1.02732 56.7594 0.888889 57.1783 0.612022L57.518 0.830601C57.0538 1.13661 56.8217 1.87978 56.8217 3.06011ZM47.345 21.4754C47.345 21.8179 47.1582 21.9891 46.7846 21.9891C46.4109 21.9891 46.2241 21.8106 46.2241 21.4536C46.2241 21.1038 46.3034 20.8051 46.4619 20.5574C46.6317 20.3169 46.7336 20.1967 46.7676 20.1967C46.8016 20.1967 46.8638 20.2623 46.9544 20.3934C47.2148 20.7723 47.345 21.133 47.345 21.4754Z" fill="#231F20"/>
<path d="M64.5801 18.7978L64.9877 15.8361C64.9877 15.6029 64.7839 15.4098 64.3763 15.2568C63.7083 15.0164 62.8931 14.8962 61.9307 14.8962C60.64 14.8962 59.7512 15.0601 59.2643 15.388C59.0492 15.5337 58.9417 15.745 58.9417 16.0219C58.9417 16.306 59.0719 16.7978 59.3323 17.4973C59.5927 18.1967 59.7229 18.6885 59.7229 18.9727C59.7229 19.2641 59.638 19.4936 59.4681 19.6612C59.3096 19.8361 59.0719 19.9235 58.7548 19.9235C58.4378 19.9235 58.1944 19.8361 58.0246 19.6612C57.8547 19.4936 57.7698 19.2641 57.7698 18.9727C57.7698 18.6812 57.9057 18.1785 58.1774 17.4645C58.4605 16.7505 58.602 16.2113 58.602 15.847L58.585 2.44809C58.585 1.58834 58.1774 0.870674 57.3622 0.295082L57.7189 0.0655738C58.636 0.590164 59.7512 0.852459 61.0646 0.852459H66.1426C66.8672 0.852459 67.4786 0.797814 67.9768 0.688525C68.4863 0.571949 68.8939 0.346084 69.1996 0.010929L69.76 0.185792C69.4656 0.637523 69.3184 1.06375 69.3184 1.46448C69.3184 1.79235 70.2129 2.61566 72.0018 3.93443C74.3342 5.65392 75.8343 6.80874 76.5023 7.39891C77.1704 7.98907 77.6063 8.4663 77.8101 8.8306H78.8291C78.2743 8.30601 77.9969 7.56648 77.9969 6.61202C77.9969 6.16758 78.0818 5.50455 78.2516 4.62295C78.4215 3.73406 78.5064 3.0674 78.5064 2.62295C78.5064 1.42805 77.9176 0.652095 76.7401 0.295082L77.0968 0.0655738C78.0139 0.590164 79.1291 0.852459 80.4425 0.852459H83.924C85.2374 0.852459 86.3526 0.590164 87.2697 0.0655738L87.6094 0.295082C86.8055 0.87796 86.4036 1.59563 86.4036 2.44809L86.3696 15.7923C86.3696 16.1056 86.4828 16.5719 86.7093 17.1913C86.9357 17.8179 87.049 18.2878 87.049 18.6011C87.049 19.0674 86.7716 19.3005 86.2168 19.3005C85.662 19.3005 85.3846 19.0674 85.3846 18.6011C85.3846 18.2951 85.4922 17.8434 85.7073 17.2459C85.9224 16.6557 86.03 16.2477 86.03 16.0219C86.03 15.8033 85.9167 15.6466 85.6903 15.5519C85.4638 15.4572 85.2431 15.4098 85.0279 15.4098H78.3196C77.3685 15.4098 76.893 15.9672 76.893 17.082C76.893 17.541 77.0232 18.204 77.2836 19.071C77.5553 19.9454 77.6912 20.6047 77.6912 21.0492C77.6912 21.6831 77.3232 22 76.5873 22C75.8513 22 75.4834 21.6794 75.4834 21.0383C75.4834 20.6302 75.6249 20.0364 75.9079 19.2568C76.2023 18.4772 76.3552 17.8907 76.3665 17.4973L76.4005 16.0437C76.4344 15.3661 76.3269 14.9253 76.0778 14.7213L67.9428 8.08743C67.7277 7.90528 67.4899 7.52641 67.2295 6.95082L66.1935 6.97268C66.7823 7.36612 67.0766 7.80328 67.0766 8.28415V14.5246L67.3993 20.0546C67.3993 20.1712 67.3427 20.2696 67.2295 20.3497C67.1276 20.4372 66.9804 20.4809 66.7879 20.4809C66.6068 20.4809 66.4539 20.4299 66.3294 20.3279C66.2048 20.2332 66.1426 20.1239 66.1426 20L66.3464 15.8033C66.3464 15.7158 66.2954 15.6357 66.1935 15.5628C66.0916 15.49 65.9727 15.4536 65.8369 15.4536C65.5425 15.4536 65.3953 15.5993 65.3953 15.8907C65.3953 16.1821 65.4689 16.6594 65.6161 17.3224C65.7746 17.9854 65.8538 18.4408 65.8538 18.6885C65.8538 19.2423 65.6387 19.5191 65.2085 19.5191C64.7896 19.5191 64.5801 19.2787 64.5801 18.7978Z" fill="#231F20"/>
<path d="M95.9781 11.3005C96.4876 11.4608 96.7423 11.7596 96.7423 12.1967V14.5246C96.7423 14.969 96.9631 15.3333 97.4047 15.6175L97.065 15.8361C96.6234 15.5519 96.0573 15.4098 95.3667 15.4098H89.4735C88.7828 15.4098 88.2167 15.5519 87.7752 15.8361L87.4355 15.6175C87.8771 15.3333 88.0978 14.969 88.0978 14.5246V1.7377C88.0978 1.29326 87.8771 0.928962 87.4355 0.644809L87.7752 0.415301C88.228 0.70674 88.7941 0.852459 89.4735 0.852459H95.3667C96.046 0.852459 96.6121 0.70674 97.065 0.415301L97.4047 0.644809C96.9631 0.928962 96.7423 1.29326 96.7423 1.7377V5.13661C96.7423 5.57377 96.6064 5.99271 96.3347 6.39344L96.5895 6.45902C96.8499 6.06557 97.2292 5.71585 97.7273 5.40984L104.13 1.46448C104.39 1.30419 104.549 1.15847 104.606 1.02732C104.673 0.896175 104.657 0.721311 104.555 0.502732L105.149 0.360656C105.364 0.688525 105.811 0.852459 106.491 0.852459H115.016C115.65 0.852459 116.307 0.772313 116.986 0.612022L117.071 0.765027C116.437 0.918033 115.865 1.14025 115.356 1.43169L108.461 5.28962C107.963 5.58106 107.402 5.70128 106.779 5.65027L106.711 5.98907C107.323 6.0255 107.821 6.22951 108.206 6.60109L117.003 14.6776C117.388 15.0419 117.875 15.326 118.464 15.5301L118.311 15.7049C117.734 15.5082 117.1 15.4098 116.409 15.4098H108.206C107.527 15.4098 107.051 15.5738 106.779 15.9016L106.236 15.7158C106.394 15.5046 106.457 15.3297 106.423 15.1913C106.389 15.0455 106.27 14.8707 106.066 14.6667L101.209 10.0546C100.835 9.68306 100.688 9.2969 100.767 8.89618L100.309 8.86339C100.23 9.25683 99.9182 9.59563 99.3747 9.87978L97.8123 10.7432C97.5179 10.8962 97.2631 10.9872 97.048 11.0164C96.8442 11.0455 96.5781 11.02 96.2498 10.9399L95.9781 11.3005Z" fill="#231F20"/>
<path d="M126.609 18.6011L126.779 17.4973V15.4536C123.733 15.3515 121.458 15.0856 119.952 14.6557C118.446 14.2186 117.336 13.6721 116.623 13.0164C116.193 12.6302 115.859 12.2004 115.621 11.7268C115.395 11.2459 115.015 10.8852 114.483 10.6448L114.738 10.4153C115.247 10.6339 115.796 10.7432 116.385 10.7432C116.985 10.7432 117.75 10.7286 118.678 10.6995C119.606 10.6703 120.654 10.6375 121.82 10.6011C122.986 10.5574 123.818 10.5282 124.316 10.5137C124.815 10.4991 125.183 10.4554 125.42 10.3825C125.658 10.3024 125.828 10.1603 125.93 9.95628L126.694 10.1202C126.66 10.1785 126.643 10.255 126.643 10.3497C126.643 10.5902 126.954 10.8634 127.577 11.1694C128.2 11.4754 129.326 11.6284 130.957 11.6284C132.055 11.6284 132.836 11.5082 133.301 11.2678C133.504 11.1585 133.606 11.0273 133.606 10.8743C133.606 10.5173 133.301 10.2805 132.689 10.1639C132.078 10.0474 131.336 9.949 130.464 9.86885C129.604 9.78142 128.738 9.7122 127.866 9.6612C127.005 9.6102 126.071 9.53734 125.064 9.44262C124.056 9.3479 123.105 9.2459 122.21 9.13661C121.316 9.02004 120.444 8.85246 119.595 8.63388C118.757 8.4153 118.038 8.16029 117.438 7.86885C116.838 7.57013 116.351 7.19126 115.978 6.73224C115.615 6.26594 115.434 5.7377 115.434 5.14754C115.434 4.55738 115.576 4.01821 115.859 3.53005C116.153 3.04189 116.549 2.62295 117.048 2.27322C117.546 1.9235 118.146 1.61384 118.848 1.34426C119.561 1.07468 120.303 0.856102 121.073 0.688525C121.854 0.520947 122.703 0.386157 123.62 0.284153C125.217 0.0947177 126.722 0 128.138 0C129.553 0 130.629 0.014572 131.364 0.0437158C132.112 0.0655738 132.984 0.112933 133.98 0.185792C134.988 0.251366 135.893 0.364299 136.697 0.52459C137.512 0.677596 138.316 0.874317 139.109 1.11475C140.762 1.6102 141.922 2.37887 142.59 3.42076C142.862 3.79235 143.236 4.13843 143.711 4.45902L143.49 4.71038C143.015 4.49909 142.466 4.39344 141.843 4.39344H141.622C140.717 4.4153 139.42 4.45902 137.733 4.52459C136.057 4.58288 134.976 4.61931 134.489 4.63388C134.014 4.64845 133.669 4.69217 133.453 4.76503C133.25 4.83789 133.102 4.97632 133.012 5.18033L132.265 5.04918C132.299 4.98361 132.316 4.91439 132.316 4.84153C132.316 4.53552 131.931 4.27322 131.161 4.05464C130.391 3.82878 129.519 3.71585 128.545 3.71585C126.643 3.71585 125.692 3.95628 125.692 4.43716C125.692 4.86703 127.119 5.18033 129.972 5.37705C130.64 5.42805 131.398 5.47905 132.248 5.53005C135.203 5.72678 137.467 5.98543 139.041 6.30601C142.347 6.97632 144 8.25501 144 10.1421C144 10.9144 143.751 11.6102 143.253 12.2295C142.755 12.8415 142.104 13.3406 141.3 13.7268C140.507 14.1129 139.567 14.4335 138.48 14.6885C136.522 15.1475 134.286 15.377 131.772 15.377C131.093 15.377 130.691 15.3734 130.566 15.3661C129.955 15.3661 129.649 15.6685 129.649 16.2732V16.5355C129.649 16.7322 129.723 17.02 129.87 17.3989C130.028 17.7851 130.108 18.0729 130.108 18.2623C130.108 18.6485 129.898 18.8415 129.479 18.8415C129.264 18.8415 129.094 18.7832 128.97 18.6667C128.857 18.5501 128.8 18.4044 128.8 18.2295C128.8 18.0546 128.868 17.7559 129.004 17.3333C129.151 16.918 129.225 16.6157 129.225 16.4262C129.225 16.2368 129.219 16.102 129.208 16.0219C129.208 15.949 129.191 15.8543 129.157 15.7377C129.134 15.6284 129.089 15.5483 129.021 15.4973C128.862 15.3661 128.591 15.3005 128.206 15.3005C127.504 15.3005 127.153 15.694 127.153 16.4809L127.255 18.2732C127.255 18.7541 127.147 18.9945 126.932 18.9945C126.717 18.9945 126.609 18.8634 126.609 18.6011Z" fill="#231F20"/>
</svg>
