<svg width="44" height="44" viewBox="0 0 44 44" fill="none" xmlns="http://www.w3.org/2000/svg">
<path fill-rule="evenodd" clip-rule="evenodd" d="M1.5 11C1.5 10.1716 2.17157 9.5 3 9.5C5.06933 9.5 7.22064 9.69791 9.28509 9.88784C10.4339 9.99352 11.5557 10.0967 12.6216 10.162C19.832 10.6034 27.0773 10.5562 34.3615 10.4794C34.7925 10.4749 35.1973 10.4497 35.6503 10.4216C36.0074 10.3994 36.3944 10.3753 36.8479 10.3581C37.7582 10.3234 38.8082 10.3285 39.7845 10.5563C40.5912 10.7445 41.0926 11.5511 40.9044 12.3579C40.7161 13.1646 39.9095 13.666 39.1028 13.4778C38.5343 13.3451 37.8162 13.3233 36.9621 13.3559C36.673 13.3669 36.3317 13.3871 35.9778 13.408C35.431 13.4403 34.8541 13.4744 34.3931 13.4793C27.1154 13.556 19.7698 13.6053 12.4383 13.1564C11.1675 13.0786 9.95993 12.966 8.77978 12.8561C6.83223 12.6745 4.95932 12.5 3 12.5C2.17157 12.5 1.5 11.8284 1.5 11Z" fill="#231F20"/>
<path fill-rule="evenodd" clip-rule="evenodd" d="M31.1033 20.3603C33.7809 20.1404 36.5321 19.9146 39.2735 19.9146C40.102 19.9146 40.7735 20.5861 40.7735 21.4146C40.7735 22.243 40.102 22.9146 39.2735 22.9146C36.6667 22.9146 34.0872 23.1261 31.4383 23.3434C30.5733 23.4143 29.7009 23.4859 28.8178 23.5509C23.4176 23.9482 18.0125 24.0708 12.6463 24.1925C11.667 24.2147 10.689 24.2369 9.71261 24.2607C8.71852 24.285 7.71048 24.2798 6.72941 24.2747C6.32816 24.2726 5.93142 24.2706 5.54199 24.2706C4.71357 24.2706 4.04199 23.599 4.04199 22.7706C4.04199 21.9422 4.71357 21.2706 5.54199 21.2706C5.96543 21.2706 6.38154 21.2728 6.79311 21.2749C7.7549 21.2799 8.69187 21.2847 9.63946 21.2616C10.6264 21.2376 11.6113 21.2152 12.5946 21.1929C17.9623 21.071 23.2802 20.9502 28.5976 20.5589C29.4238 20.4982 30.2599 20.4295 31.1033 20.3603Z" fill="#231F20"/>
<path fill-rule="evenodd" clip-rule="evenodd" d="M3.12988 32.4146C3.12988 31.5861 3.80146 30.9146 4.62988 30.9146C5.37903 30.9146 6.15715 30.9987 6.83321 31.0717C7.04575 31.0947 7.24821 31.1166 7.4365 31.1344C7.91655 31.1799 8.38863 31.2275 8.85557 31.2746C10.0597 31.3959 11.2297 31.5138 12.4136 31.5834C17.8058 31.9006 23.1903 32.1065 28.5571 32.0141C30.4919 31.9809 32.4277 31.8761 34.3949 31.7686L34.4706 31.7645C36.4043 31.6588 38.369 31.5515 40.3413 31.5145C41.1696 31.4989 41.8537 32.1578 41.8692 32.986C41.8848 33.8143 41.2259 34.4984 40.3977 34.5139C38.4794 34.55 36.5604 34.6548 34.6098 34.7613L34.5586 34.7641C32.5994 34.8712 30.6085 34.9793 28.6087 35.0137C23.1348 35.1079 17.6663 34.8976 12.2374 34.5782C10.9864 34.5047 9.72196 34.3772 8.49597 34.2537C8.04235 34.208 7.59401 34.1628 7.15356 34.1211C6.87764 34.0949 6.62111 34.0673 6.37734 34.041C5.74788 33.9732 5.20347 33.9146 4.62988 33.9146C3.80146 33.9146 3.12988 33.243 3.12988 32.4146Z" fill="#231F20"/>
</svg>
