<svg width="282" height="44" viewBox="0 0 282 44" fill="none" xmlns="http://www.w3.org/2000/svg">
<path d="M1.46339 33.4863L1.39687 29.0492V3.38798C1.39687 2.49909 0.975594 1.77778 0.133036 1.22404L0.798213 0.786885C1.64077 1.34062 2.73831 1.61749 4.09084 1.61749H32.7933C37.383 1.61749 40.4871 1.70492 42.1057 1.87978C43.7465 2.05464 45.1766 2.25137 46.3961 2.46995C47.6156 2.67395 48.6356 2.92168 49.456 3.21311C50.2763 3.50455 51.1189 3.87614 51.9836 4.32787C52.8484 4.7796 53.5357 5.28962 54.0457 5.85792C55.2208 7.1694 55.8084 8.64117 55.8084 10.2732C55.8084 11.8907 55.5312 13.275 54.9769 14.4262C54.4448 15.5628 53.5801 16.5829 52.3827 17.4863C49.8994 19.3807 45.6755 20.3279 39.7111 20.3279H21.3855C20.0108 20.3279 18.9021 20.051 18.0596 19.4973L17.3611 19.9126C18.248 20.4954 18.6915 21.224 18.6915 22.0984V29.0492C18.6915 30.1712 18.6693 31.5483 18.625 33.1803L17.1283 33.2678C16.8401 31.6357 16.4631 30.8197 15.9975 30.8197H4.09084C3.82477 30.8197 3.60305 31.1694 3.42566 31.8689C3.27046 32.5829 3.19285 33.2605 3.19285 33.9016C3.19285 34.5574 3.40349 35.6648 3.82477 37.224C4.24605 38.7832 4.45669 39.8761 4.45669 40.5027C4.45669 41.8433 3.71391 42.5137 2.22834 42.5137C0.742782 42.5137 0 41.8288 0 40.459C0 39.8033 0.243898 38.6448 0.731695 36.9836C1.21949 35.3224 1.46339 34.1566 1.46339 33.4863ZM18.6915 10.6885V11.9781C18.6915 12.8379 18.248 13.5592 17.3611 14.1421L18.0596 14.6011C18.9243 14.0328 20.0329 13.7486 21.3855 13.7486H32.1613C34.4008 13.7486 35.7422 13.6685 36.1857 13.5082C36.6291 13.3333 37.006 13.1585 37.3165 12.9836C37.8486 12.663 38.1147 12.204 38.1147 11.6066C38.1147 11.0091 38.0149 10.5719 37.8153 10.2951C37.638 10.0036 37.3719 9.77778 37.0171 9.61749C36.6624 9.45719 36.3076 9.32605 35.9528 9.22404C35.5981 9.12204 35.1657 9.04918 34.6558 9.00546C33.9462 8.94718 33.1591 8.91803 32.2944 8.91803H21.3855C20.0108 8.91803 18.9021 8.64116 18.0596 8.08743L17.3611 8.50273C18.248 9.08561 18.6915 9.81421 18.6915 10.6885ZM10.7094 32.306L11.5741 37.4863C11.5741 38.3752 11.0752 38.8197 10.0774 38.8197C9.10185 38.8197 8.61405 38.3679 8.61405 37.4645C8.61405 36.9399 8.8136 36.0219 9.21271 34.7104C9.63399 33.4135 9.84463 32.561 9.84463 32.153C9.84463 31.7596 9.83354 31.2495 9.81137 30.6229C9.81137 29.9964 9.81137 29.4718 9.81137 29.0492L11.308 30.2076C11.1528 30.2076 11.0087 30.4408 10.8757 30.9071C10.7648 31.388 10.7094 31.8543 10.7094 32.306Z" fill="white"/>
<path d="M111.276 6.12022L111.575 17.2896C111.575 21.1803 110.843 24.0291 109.38 25.8361C108.005 27.5556 106.043 28.8452 103.493 29.7049C100.589 30.6958 96.7306 31.337 91.9191 31.6284V35.7158L92.2517 37.9672C92.2517 38.4627 92.0411 38.7104 91.6198 38.7104C91.1985 38.7104 90.9879 38.2295 90.9879 37.2678L91.1874 33.7049C91.1874 32.1311 90.4447 31.3443 88.9591 31.3443C87.8061 31.3443 87.2296 31.9636 87.2296 33.2022C87.2296 33.2022 87.2851 33.8361 87.3959 35.1038C87.3959 35.541 87.529 36.1749 87.795 37.0055C88.0833 37.8506 88.2274 38.4481 88.2274 38.7978C88.2274 39.1475 88.1165 39.439 87.8948 39.6721C87.6731 39.9053 87.3516 40.0219 86.9303 40.0219C86.509 40.0219 86.1875 39.898 85.9658 39.6503C85.7662 39.4171 85.6665 39.133 85.6665 38.7978C85.6665 38.4627 85.8106 37.9089 86.0988 37.1366C86.4092 36.3789 86.5645 35.8907 86.5645 35.6721C86.5645 35.4536 86.5645 35.2277 86.5645 34.9945C86.5645 34.776 86.5534 34.5501 86.5312 34.3169C86.509 34.0838 86.4536 33.7924 86.3649 33.4426C86.1875 32.714 85.6554 32.3497 84.7685 32.3497C83.1277 32.3497 82.3073 33.4135 82.3073 35.541V36.5464C82.3073 37.0856 82.5069 37.8725 82.906 38.9071C83.3051 39.9417 83.5046 40.6849 83.5046 41.1366C83.5046 42.2586 82.9503 42.8197 81.8417 42.8197C81.2874 42.8197 80.8439 42.6667 80.5113 42.3607C80.2009 42.0546 80.0457 41.6612 80.0457 41.1803C80.0457 40.6995 80.2231 39.8834 80.5779 38.7322C80.9548 37.5811 81.1433 36.7067 81.1433 36.1093V31.7596C74.8462 31.5701 70.1235 30.9654 66.975 29.9454C61.4762 28.1967 58.6492 24.8743 58.494 19.9781C58.4496 18.623 58.4274 16.6047 58.4274 13.9235L58.494 3.82514C58.494 2.96539 58.0616 2.24408 57.1969 1.6612L57.8953 1.22404C58.7157 1.77778 59.8132 2.05464 61.1879 2.05464H72.9616C74.3141 2.05464 75.4116 1.77778 76.2542 1.22404L76.9526 1.6612C76.1101 2.22951 75.6888 2.95082 75.6888 3.82514L75.7553 15.0601C75.7553 17.2313 75.844 18.6084 76.0214 19.1913C76.1988 19.7741 76.3872 20.3133 76.5868 20.8087C76.8085 21.2896 77.0635 21.6758 77.3517 21.9672C77.6622 22.2587 78.0502 22.5719 78.5158 22.9071C78.9814 23.2277 79.5136 23.4754 80.1122 23.6503C81.5091 24.0583 82.8727 24.2623 84.2031 24.2623C85.5556 24.2623 86.5977 24.2259 87.3294 24.153C88.0833 24.0656 88.7374 23.9344 89.2917 23.7596C89.8682 23.5701 90.3781 23.3734 90.8216 23.1694C91.2872 22.9508 91.6752 22.6812 91.9857 22.3607C92.3182 22.0255 92.6065 21.7122 92.8504 21.4208C93.0943 21.1148 93.2828 20.7359 93.4158 20.2842C93.571 19.8324 93.6929 19.439 93.7816 19.1038C93.8703 18.7541 93.9368 18.3169 93.9812 17.7924C94.0477 16.9909 94.081 16.0801 94.081 15.0601L94.1475 3.82514C94.1475 2.93625 93.7373 2.21494 92.9169 1.6612L93.5488 1.22404C94.3914 1.77778 95.5 2.05464 96.8747 2.05464H108.648C110.045 2.05464 111.154 1.77778 111.974 1.22404L112.639 1.6612C111.73 2.27322 111.276 3.75956 111.276 6.12022ZM92.7173 42.9508C92.7173 43.6357 92.3515 43.9781 91.6198 43.9781C90.8881 43.9781 90.5223 43.6211 90.5223 42.9071C90.5223 42.2076 90.6775 41.6102 90.9879 41.1148C91.3205 40.6339 91.52 40.3934 91.5865 40.3934C91.6531 40.3934 91.775 40.5246 91.9524 40.7869C92.4624 41.5446 92.7173 42.2659 92.7173 42.9508Z" fill="white"/>
<path d="M126.469 37.5956L127.268 31.6721C127.268 31.2058 126.868 30.8197 126.07 30.5137C124.762 30.0328 123.166 29.7923 121.281 29.7923C118.753 29.7923 117.013 30.1202 116.059 30.776C115.638 31.0674 115.427 31.49 115.427 32.0437C115.427 32.612 115.682 33.5956 116.192 34.9945C116.702 36.3934 116.957 37.377 116.957 37.9454C116.957 38.5282 116.791 38.9872 116.458 39.3224C116.148 39.6721 115.682 39.847 115.062 39.847C114.441 39.847 113.964 39.6721 113.631 39.3224C113.299 38.9872 113.133 38.5282 113.133 37.9454C113.133 37.3625 113.399 36.357 113.931 34.929C114.485 33.5009 114.762 32.4226 114.762 31.694L114.729 4.89617C114.729 3.17668 113.931 1.74135 112.334 0.590164L113.033 0.131148C114.829 1.18033 117.013 1.70492 119.585 1.70492H129.529C130.948 1.70492 132.146 1.59563 133.121 1.37705C134.119 1.1439 134.917 0.692168 135.516 0.0218579L136.613 0.371585C136.037 1.27505 135.749 2.1275 135.749 2.92896C135.749 3.5847 137.5 5.23133 141.003 7.86885C145.571 11.3078 148.509 13.6175 149.817 14.7978C151.125 15.9781 151.979 16.9326 152.378 17.6612H154.374C153.287 16.612 152.744 15.133 152.744 13.224C152.744 12.3352 152.91 11.0091 153.243 9.2459C153.575 7.46812 153.742 6.13479 153.742 5.2459C153.742 2.8561 152.589 1.30419 150.283 0.590164L150.981 0.131148C152.777 1.18033 154.961 1.70492 157.533 1.70492H164.351C166.923 1.70492 169.107 1.18033 170.903 0.131148L171.568 0.590164C169.994 1.75592 169.207 3.19126 169.207 4.89617L169.141 31.5847C169.141 32.2113 169.362 33.1439 169.806 34.3825C170.249 35.6357 170.471 36.5756 170.471 37.2022C170.471 38.1348 169.928 38.6011 168.841 38.6011C167.755 38.6011 167.211 38.1348 167.211 37.2022C167.211 36.5902 167.422 35.6867 167.843 34.4918C168.265 33.3115 168.475 32.4954 168.475 32.0437C168.475 31.6066 168.254 31.2933 167.81 31.1038C167.367 30.9144 166.934 30.8197 166.513 30.8197H153.376C151.513 30.8197 150.582 31.9344 150.582 34.1639C150.582 35.082 150.837 36.408 151.347 38.1421C151.879 39.8907 152.145 41.2095 152.145 42.0984C152.145 43.3661 151.425 44 149.983 44C148.542 44 147.822 43.3588 147.822 42.0765C147.822 41.2605 148.099 40.0729 148.653 38.5137C149.23 36.9545 149.529 35.7814 149.551 34.9945L149.618 32.0874C149.684 30.7322 149.473 29.8506 148.986 29.4426L133.055 16.1749C132.633 15.8106 132.168 15.0528 131.658 13.9016L129.629 13.9454C130.782 14.7322 131.358 15.6066 131.358 16.5683V29.0492L131.99 40.1093C131.99 40.3424 131.879 40.5392 131.658 40.6995C131.458 40.8743 131.17 40.9618 130.793 40.9618C130.438 40.9618 130.139 40.8597 129.895 40.6557C129.651 40.4663 129.529 40.2477 129.529 40L129.928 31.6066C129.928 31.4317 129.829 31.2714 129.629 31.1257C129.429 30.98 129.197 30.9071 128.931 30.9071C128.354 30.9071 128.066 31.1985 128.066 31.7814C128.066 32.3643 128.21 33.3188 128.498 34.6448C128.809 35.9709 128.964 36.8816 128.964 37.377C128.964 38.4845 128.542 39.0382 127.7 39.0382C126.88 39.0382 126.469 38.5574 126.469 37.5956Z" fill="white"/>
<path d="M187.957 22.6011C188.955 22.9217 189.454 23.5191 189.454 24.3934V29.0492C189.454 29.9381 189.886 30.6667 190.751 31.235L190.086 31.6721C189.221 31.1038 188.112 30.8197 186.76 30.8197H175.219C173.866 30.8197 172.758 31.1038 171.893 31.6721L171.228 31.235C172.093 30.6667 172.525 29.9381 172.525 29.0492V3.47541C172.525 2.58652 172.093 1.85792 171.228 1.28962L171.893 0.830601C172.78 1.41348 173.889 1.70492 175.219 1.70492H186.76C188.09 1.70492 189.199 1.41348 190.086 0.830601L190.751 1.28962C189.886 1.85792 189.454 2.58652 189.454 3.47541V10.2732C189.454 11.1475 189.188 11.9854 188.655 12.7869L189.154 12.918C189.664 12.1311 190.407 11.4317 191.383 10.8197L203.921 2.92896C204.431 2.60838 204.742 2.31694 204.853 2.05464C204.986 1.79235 204.952 1.44262 204.753 1.00546L205.917 0.721311C206.338 1.37705 207.214 1.70492 208.544 1.70492H225.24C226.482 1.70492 227.768 1.54463 229.098 1.22404L229.265 1.53005C228.023 1.83607 226.903 2.28051 225.905 2.86339L212.402 10.5792C211.427 11.1621 210.329 11.4026 209.11 11.3005L208.977 11.9781C210.174 12.051 211.15 12.459 211.903 13.2022L229.132 29.3552C229.885 30.0838 230.839 30.6521 231.992 31.0601L231.692 31.4098C230.562 31.0164 229.32 30.8197 227.967 30.8197H211.903C210.573 30.8197 209.642 31.1475 209.11 31.8033L208.045 31.4317C208.356 31.0091 208.478 30.6594 208.411 30.3825C208.345 30.0911 208.112 29.7413 207.713 29.3333L198.201 20.1093C197.469 19.3661 197.181 18.5938 197.336 17.7924L196.438 17.7268C196.283 18.5137 195.673 19.1913 194.609 19.7596L191.549 21.4863C190.973 21.7924 190.474 21.9745 190.052 22.0328C189.653 22.0911 189.132 22.0401 188.489 21.8798L187.957 22.6011Z" fill="white"/>
<path d="M247.943 37.2022L248.275 34.9945V30.9071C242.311 30.7031 237.854 30.1712 234.905 29.3115C231.956 28.4372 229.784 27.3443 228.387 26.0328C227.544 25.2605 226.89 24.4007 226.424 23.4536C225.981 22.4918 225.238 21.7705 224.196 21.2896L224.695 20.8306C225.693 21.2678 226.768 21.4863 227.921 21.4863C229.096 21.4863 230.593 21.4572 232.411 21.3989C234.229 21.3406 236.28 21.275 238.564 21.2022C240.848 21.1148 242.477 21.0565 243.453 21.0273C244.429 20.9982 245.149 20.9107 245.615 20.765C246.08 20.6047 246.413 20.3206 246.613 19.9126L248.109 20.2404C248.043 20.357 248.009 20.51 248.009 20.6995C248.009 21.1803 248.619 21.7268 249.839 22.3388C251.058 22.9508 253.264 23.2568 256.457 23.2568C258.608 23.2568 260.138 23.0164 261.047 22.5355C261.446 22.3169 261.646 22.0546 261.646 21.7486C261.646 21.0346 261.047 20.561 259.85 20.3279C258.652 20.0947 257.2 19.898 255.493 19.7377C253.808 19.5628 252.111 19.4244 250.404 19.3224C248.719 19.2204 246.89 19.0747 244.916 18.8852C242.943 18.6958 241.08 18.4918 239.329 18.2732C237.577 18.0401 235.87 17.7049 234.207 17.2678C232.566 16.8306 231.158 16.3206 229.983 15.7377C228.808 15.1403 227.855 14.3825 227.123 13.4645C226.413 12.5319 226.059 11.4754 226.059 10.2951C226.059 9.11475 226.336 8.03643 226.89 7.06011C227.467 6.08379 228.243 5.2459 229.218 4.54645C230.194 3.84699 231.369 3.22769 232.744 2.68852C234.14 2.14936 235.593 1.7122 237.101 1.37705C238.63 1.04189 240.293 0.772313 242.089 0.568306C245.216 0.189435 248.165 0 250.936 0C253.708 0 255.814 0.0291439 257.255 0.0874317C258.719 0.131148 260.426 0.225865 262.377 0.371585C264.351 0.502732 266.124 0.728598 267.699 1.04918C269.295 1.35519 270.869 1.74863 272.421 2.22951C275.659 3.2204 277.931 4.75774 279.24 6.84153C279.772 7.5847 280.503 8.27687 281.435 8.91803L281.002 9.42076C280.071 8.99818 278.996 8.78689 277.776 8.78689H277.344C275.57 8.8306 273.031 8.91803 269.727 9.04918C266.446 9.16576 264.328 9.23862 263.375 9.26776C262.444 9.2969 261.767 9.38433 261.346 9.53005C260.947 9.67577 260.659 9.95264 260.482 10.3607L259.018 10.0984C259.085 9.96721 259.118 9.82878 259.118 9.68306C259.118 9.07104 258.364 8.54645 256.856 8.10929C255.349 7.65756 253.641 7.43169 251.734 7.43169C248.009 7.43169 246.147 7.91257 246.147 8.87432C246.147 9.73406 248.941 10.3607 254.528 10.7541C255.836 10.8561 257.322 10.9581 258.985 11.0601C264.772 11.4536 269.206 11.9709 272.288 12.612C278.763 13.9526 282 16.51 282 20.2842C282 21.8288 281.512 23.2204 280.537 24.459C279.561 25.6831 278.286 26.6812 276.712 27.4536C275.16 28.2259 273.319 28.867 271.191 29.377C267.355 30.2951 262.976 30.7541 258.054 30.7541C256.723 30.7541 255.936 30.7468 255.692 30.7322C254.495 30.7322 253.896 31.337 253.896 32.5464V33.071C253.896 33.4645 254.04 34.0401 254.329 34.7978C254.639 35.5701 254.794 36.1457 254.794 36.5246C254.794 37.2969 254.384 37.6831 253.564 37.6831C253.142 37.6831 252.81 37.5665 252.566 37.3333C252.344 37.1002 252.233 36.8087 252.233 36.459C252.233 36.1093 252.366 35.5118 252.632 34.6667C252.921 33.8361 253.065 33.2313 253.065 32.8525C253.065 32.4736 253.054 32.204 253.032 32.0437C253.032 31.898 252.998 31.7086 252.932 31.4754C252.887 31.2568 252.799 31.0965 252.666 30.9945C252.355 30.7322 251.823 30.6011 251.069 30.6011C249.695 30.6011 249.007 31.388 249.007 32.9617L249.207 36.5464C249.207 37.5082 248.996 37.9891 248.575 37.9891C248.154 37.9891 247.943 37.7268 247.943 37.2022Z" fill="white"/>
</svg>
