<svg width="25" height="24" viewBox="0 0 25 24" fill="none" xmlns="http://www.w3.org/2000/svg">
<path d="M12.167 13C12.7193 13 13.167 12.5523 13.167 12C13.167 11.4477 12.7193 11 12.167 11C11.6147 11 11.167 11.4477 11.167 12C11.167 12.5523 11.6147 13 12.167 13Z" stroke="#F7F7ED" stroke-width="2" stroke-linecap="round" stroke-linejoin="round"/>
<path d="M19.167 13C19.7193 13 20.167 12.5523 20.167 12C20.167 11.4477 19.7193 11 19.167 11C18.6147 11 18.167 11.4477 18.167 12C18.167 12.5523 18.6147 13 19.167 13Z" stroke="#F7F7ED" stroke-width="2" stroke-linecap="round" stroke-linejoin="round"/>
<path d="M5.16699 13C5.71928 13 6.16699 12.5523 6.16699 12C6.16699 11.4477 5.71928 11 5.16699 11C4.61471 11 4.16699 11.4477 4.16699 12C4.16699 12.5523 4.61471 13 5.16699 13Z" stroke="#F7F7ED" stroke-width="2" stroke-linecap="round" stroke-linejoin="round"/>
</svg>
