<svg width="1000" height="1000" viewBox="0 0 1000 1000" fill="none" xmlns="http://www.w3.org/2000/svg">
<rect width="1000" height="1000" rx="500" fill="black"/>
<path d="M121.959 540.043L121.779 528.244V460.009C121.779 457.645 120.64 455.727 118.36 454.255L120.16 453.092C122.439 454.565 125.409 455.301 129.068 455.301H206.728C219.146 455.301 227.545 455.534 231.924 455.999C236.364 456.463 240.233 456.987 243.533 457.568C246.832 458.11 249.592 458.769 251.812 459.544C254.031 460.319 256.311 461.307 258.651 462.508C260.99 463.709 262.85 465.066 264.23 466.577C267.41 470.064 268.999 473.978 268.999 478.317C268.999 482.618 268.249 486.3 266.75 489.361C265.31 492.383 262.97 495.095 259.731 497.498C253.012 502.535 241.583 505.054 225.445 505.054H175.862C172.143 505.054 169.143 504.317 166.863 502.845L164.974 503.949C167.373 505.499 168.573 507.437 168.573 509.762V528.244C168.573 531.228 168.513 534.89 168.393 539.23L164.344 539.462C163.564 535.122 162.544 532.952 161.284 532.952H129.068C128.349 532.952 127.749 533.882 127.269 535.742C126.849 537.641 126.639 539.443 126.639 541.148C126.639 542.891 127.209 545.836 128.349 549.982C129.488 554.128 130.058 557.034 130.058 558.7C130.058 562.265 128.049 564.048 124.029 564.048C120.01 564.048 118 562.227 118 558.584C118 556.841 118.66 553.76 119.98 549.343C121.3 544.925 121.959 541.826 121.959 540.043ZM168.573 479.422V482.851C168.573 485.137 167.373 487.055 164.974 488.605L166.863 489.826C169.203 488.314 172.203 487.559 175.862 487.559H205.018C211.077 487.559 214.707 487.346 215.907 486.92C217.106 486.455 218.126 485.99 218.966 485.525C220.406 484.672 221.126 483.452 221.126 481.863C221.126 480.274 220.856 479.112 220.316 478.376C219.836 477.601 219.116 477 218.156 476.574C217.196 476.148 216.237 475.799 215.277 475.528C214.317 475.256 213.147 475.063 211.767 474.946C209.847 474.791 207.718 474.714 205.378 474.714H175.862C172.143 474.714 169.143 473.978 166.863 472.505L164.974 473.61C167.373 475.159 168.573 477.097 168.573 479.422ZM146.976 536.905L149.316 550.68C149.316 553.043 147.966 554.225 145.266 554.225C142.627 554.225 141.307 553.024 141.307 550.621C141.307 549.227 141.847 546.785 142.927 543.298C144.066 539.849 144.636 537.583 144.636 536.498C144.636 535.452 144.606 534.095 144.546 532.429C144.546 530.763 144.546 529.368 144.546 528.244L148.596 531.325C148.176 531.325 147.786 531.945 147.426 533.185C147.126 534.463 146.976 535.703 146.976 536.905Z" fill="white"/>
<path d="M419.076 467.274L419.886 496.975C419.886 507.32 417.906 514.896 413.947 519.7C410.227 524.273 404.918 527.702 398.019 529.988C390.16 532.623 379.721 534.328 366.703 535.103V545.972L367.603 551.958C367.603 553.276 367.033 553.934 365.893 553.934C364.753 553.934 364.184 552.656 364.184 550.098L364.723 540.624C364.723 536.44 362.714 534.347 358.694 534.347C355.575 534.347 354.015 535.994 354.015 539.288C354.015 539.288 354.165 540.973 354.465 544.344C354.465 545.507 354.825 547.192 355.545 549.401C356.325 551.648 356.715 553.237 356.715 554.167C356.715 555.097 356.415 555.872 355.815 556.492C355.215 557.112 354.345 557.422 353.205 557.422C352.065 557.422 351.195 557.092 350.595 556.434C350.055 555.814 349.786 555.058 349.786 554.167C349.786 553.276 350.175 551.803 350.955 549.75C351.795 547.735 352.215 546.437 352.215 545.855C352.215 545.274 352.215 544.674 352.215 544.054C352.215 543.472 352.185 542.872 352.125 542.252C352.065 541.632 351.915 540.857 351.675 539.927C351.195 537.99 349.756 537.021 347.356 537.021C342.916 537.021 340.697 539.849 340.697 545.507V548.18C340.697 549.614 341.237 551.706 342.317 554.458C343.396 557.209 343.936 559.185 343.936 560.386C343.936 563.37 342.437 564.861 339.437 564.861C337.937 564.861 336.737 564.455 335.837 563.641C334.998 562.827 334.578 561.781 334.578 560.502C334.578 559.224 335.058 557.054 336.017 553.993C337.037 550.931 337.547 548.607 337.547 547.018V535.452C320.51 534.948 307.731 533.34 299.212 530.627C284.334 525.978 276.686 517.143 276.266 504.124C276.146 500.52 276.086 495.154 276.086 488.024L276.266 461.171C276.266 458.885 275.096 456.967 272.756 455.417L274.646 454.255C276.865 455.727 279.835 456.463 283.555 456.463H315.41C319.07 456.463 322.039 455.727 324.319 454.255L326.209 455.417C323.929 456.928 322.789 458.846 322.789 461.171L322.969 491.046C322.969 496.82 323.209 500.481 323.689 502.031C324.169 503.581 324.679 505.015 325.219 506.332C325.819 507.611 326.509 508.638 327.289 509.413C328.128 510.188 329.178 511.021 330.438 511.912C331.698 512.765 333.138 513.423 334.758 513.888C338.537 514.973 342.227 515.516 345.826 515.516C349.486 515.516 352.305 515.419 354.285 515.225C356.325 514.993 358.094 514.644 359.594 514.179C361.154 513.675 362.534 513.152 363.734 512.61C364.993 512.028 366.043 511.311 366.883 510.459C367.783 509.568 368.563 508.735 369.223 507.96C369.883 507.146 370.393 506.139 370.753 504.937C371.173 503.736 371.503 502.69 371.742 501.799C371.982 500.869 372.162 499.706 372.282 498.311C372.462 496.18 372.552 493.759 372.552 491.046L372.732 461.171C372.732 458.808 371.623 456.89 369.403 455.417L371.113 454.255C373.392 455.727 376.392 456.463 380.111 456.463H411.967C415.746 456.463 418.746 455.727 420.966 454.255L422.766 455.417C420.306 457.045 419.076 460.997 419.076 467.274ZM368.863 565.21C368.863 567.031 367.873 567.942 365.893 567.942C363.914 567.942 362.924 566.993 362.924 565.094C362.924 563.234 363.344 561.645 364.184 560.328C365.083 559.049 365.623 558.41 365.803 558.41C365.983 558.41 366.313 558.759 366.793 559.456C368.173 561.471 368.863 563.389 368.863 565.21Z" fill="white"/>
<path d="M460.185 550.97L462.345 535.219C462.345 533.979 461.265 532.952 459.105 532.139C455.565 530.86 451.246 530.221 446.147 530.221C439.308 530.221 434.598 531.092 432.019 532.836C430.879 533.611 430.309 534.735 430.309 536.207C430.309 537.718 430.999 540.334 432.379 544.054C433.758 547.773 434.448 550.389 434.448 551.9C434.448 553.45 433.998 554.671 433.099 555.562C432.259 556.492 430.999 556.957 429.319 556.957C427.639 556.957 426.349 556.492 425.45 555.562C424.55 554.671 424.1 553.45 424.1 551.9C424.1 550.35 424.82 547.677 426.259 543.879C427.759 540.082 428.509 537.215 428.509 535.277L428.419 464.019C428.419 459.447 426.259 455.63 421.94 452.569L423.83 451.349C428.689 454.139 434.598 455.534 441.557 455.534H468.464C472.303 455.534 475.543 455.243 478.182 454.662C480.882 454.042 483.042 452.841 484.662 451.058L487.631 451.988C486.071 454.39 485.291 456.657 485.291 458.788C485.291 460.532 490.031 464.911 499.509 471.924C511.868 481.069 519.817 487.21 523.356 490.349C526.896 493.487 529.205 496.025 530.285 497.963H535.685C532.745 495.173 531.275 491.24 531.275 486.164C531.275 483.8 531.725 480.274 532.625 475.586C533.525 470.858 533.975 467.313 533.975 464.949C533.975 458.595 530.855 454.468 524.616 452.569L526.506 451.349C531.365 454.139 537.274 455.534 544.233 455.534H562.681C569.64 455.534 575.549 454.139 580.408 451.349L582.208 452.569C577.949 455.669 575.819 459.486 575.819 464.019L575.639 534.987C575.639 536.653 576.239 539.133 577.439 542.426C578.639 545.759 579.238 548.258 579.238 549.924C579.238 552.404 577.769 553.644 574.829 553.644C571.89 553.644 570.42 552.404 570.42 549.924C570.42 548.297 570.99 545.894 572.13 542.717C573.269 539.578 573.839 537.408 573.839 536.207C573.839 535.045 573.239 534.212 572.04 533.708C570.84 533.204 569.67 532.952 568.53 532.952H532.985C527.946 532.952 525.426 535.917 525.426 541.845C525.426 544.286 526.116 547.812 527.496 552.423C528.935 557.073 529.655 560.58 529.655 562.943C529.655 566.314 527.706 568 523.806 568C519.907 568 517.957 566.295 517.957 562.885C517.957 560.715 518.707 557.557 520.207 553.411C521.766 549.265 522.576 546.146 522.636 544.054L522.816 536.323C522.996 532.72 522.426 530.376 521.106 529.291L478.002 494.01C476.863 493.042 475.603 491.027 474.223 487.966L468.734 488.082C471.853 490.174 473.413 492.499 473.413 495.057V528.244L475.123 557.654C475.123 558.274 474.823 558.797 474.223 559.224C473.683 559.689 472.903 559.921 471.883 559.921C470.923 559.921 470.113 559.65 469.454 559.107C468.794 558.604 468.464 558.022 468.464 557.364L469.544 535.045C469.544 534.58 469.274 534.153 468.734 533.766C468.194 533.379 467.564 533.185 466.844 533.185C465.284 533.185 464.504 533.96 464.504 535.51C464.504 537.06 464.894 539.598 465.674 543.124C466.514 546.65 466.934 549.072 466.934 550.389C466.934 553.334 465.794 554.806 463.514 554.806C461.295 554.806 460.185 553.528 460.185 550.97Z" fill="white"/>
<path d="M626.55 511.098C629.25 511.951 630.6 513.539 630.6 515.864V528.244C630.6 530.608 631.77 532.545 634.109 534.057L632.31 535.219C629.97 533.708 626.97 532.952 623.311 532.952H592.085C588.426 532.952 585.426 533.708 583.086 535.219L581.287 534.057C583.626 532.545 584.796 530.608 584.796 528.244V460.241C584.796 457.878 583.626 455.94 581.287 454.429L583.086 453.209C585.486 454.759 588.486 455.534 592.085 455.534H623.311C626.91 455.534 629.91 454.759 632.31 453.209L634.109 454.429C631.77 455.94 630.6 457.878 630.6 460.241V478.317C630.6 480.642 629.88 482.87 628.44 485.001L629.79 485.35C631.17 483.258 633.18 481.398 635.819 479.77L669.745 458.788C671.124 457.936 671.964 457.161 672.264 456.463C672.624 455.766 672.534 454.836 671.994 453.674L675.144 452.918C676.284 454.662 678.653 455.534 682.253 455.534H727.427C730.786 455.534 734.266 455.107 737.865 454.255L738.315 455.069C734.956 455.882 731.926 457.064 729.226 458.614L692.691 479.131C690.052 480.681 687.082 481.32 683.783 481.049L683.423 482.851C686.662 483.045 689.302 484.13 691.342 486.106L737.955 529.058C739.995 530.996 742.575 532.507 745.694 533.592L744.884 534.522C741.825 533.475 738.465 532.952 734.806 532.952H691.342C687.742 532.952 685.222 533.824 683.783 535.568L680.903 534.58C681.743 533.456 682.073 532.526 681.893 531.79C681.713 531.015 681.083 530.085 680.003 529L654.267 504.472C652.287 502.496 651.507 500.443 651.927 498.311L649.497 498.137C649.077 500.23 647.428 502.031 644.548 503.542L636.269 508.134C634.709 508.948 633.359 509.432 632.22 509.587C631.14 509.742 629.73 509.607 627.99 509.18L626.55 511.098Z" fill="white"/>
<path d="M788.853 549.924L789.753 544.054V533.185C773.615 532.642 761.556 531.228 753.577 528.942C745.599 526.617 739.719 523.711 735.94 520.224C733.66 518.17 731.89 515.884 730.631 513.365C729.431 510.808 727.421 508.89 724.601 507.611L725.951 506.39C728.651 507.553 731.56 508.134 734.68 508.134C737.86 508.134 741.909 508.057 746.828 507.902C751.748 507.747 757.297 507.572 763.476 507.379C769.655 507.146 774.065 506.991 776.704 506.914C779.344 506.836 781.294 506.604 782.554 506.216C783.813 505.79 784.713 505.034 785.253 503.949L789.303 504.821C789.123 505.131 789.033 505.538 789.033 506.042C789.033 507.32 790.682 508.773 793.982 510.401C797.281 512.028 803.251 512.842 811.89 512.842C817.709 512.842 821.848 512.203 824.308 510.924C825.388 510.343 825.928 509.645 825.928 508.832C825.928 506.933 824.308 505.674 821.068 505.054C817.829 504.434 813.899 503.911 809.28 503.484C804.72 503.019 800.131 502.651 795.512 502.38C790.952 502.109 786.003 501.721 780.664 501.218C775.324 500.714 770.285 500.171 765.546 499.59C760.806 498.97 756.187 498.079 751.688 496.917C747.248 495.754 743.439 494.398 740.259 492.848C737.08 491.259 734.5 489.244 732.52 486.803C730.601 484.323 729.641 481.514 729.641 478.376C729.641 475.237 730.391 472.37 731.89 469.773C733.45 467.177 735.55 464.949 738.19 463.089C740.829 461.23 744.009 459.583 747.728 458.149C751.508 456.715 755.437 455.553 759.517 454.662C763.656 453.77 768.155 453.054 773.015 452.511C781.474 451.504 789.453 451 796.951 451C804.45 451 810.15 451.077 814.049 451.232C818.009 451.349 822.628 451.601 827.907 451.988C833.247 452.337 838.046 452.937 842.305 453.79C846.625 454.604 850.884 455.65 855.084 456.928C863.842 459.563 869.992 463.651 873.531 469.192C874.971 471.168 876.951 473.009 879.47 474.714L878.3 476.051C875.781 474.927 872.871 474.365 869.572 474.365H868.402C863.602 474.481 856.733 474.714 847.795 475.063C838.916 475.373 833.187 475.566 830.607 475.644C828.087 475.721 826.257 475.954 825.118 476.341C824.038 476.729 823.258 477.465 822.778 478.55L818.819 477.852C818.999 477.504 819.088 477.136 819.088 476.748C819.088 475.121 817.049 473.726 812.969 472.563C808.89 471.362 804.271 470.762 799.111 470.762C789.033 470.762 783.993 472.04 783.993 474.598C783.993 476.884 791.552 478.55 806.67 479.596C810.21 479.867 814.229 480.139 818.729 480.41C834.386 481.456 846.385 482.832 854.724 484.537C872.241 488.101 881 494.902 881 504.937C881 509.045 879.68 512.745 877.041 516.039C874.401 519.294 870.951 521.948 866.692 524.001C862.492 526.055 857.513 527.76 851.754 529.116C841.375 531.557 829.527 532.778 816.209 532.778C812.609 532.778 810.48 532.759 809.82 532.72C806.58 532.72 804.96 534.328 804.96 537.544V538.939C804.96 539.985 805.35 541.516 806.13 543.531C806.97 545.584 807.39 547.115 807.39 548.122C807.39 550.176 806.28 551.203 804.061 551.203C802.921 551.203 802.021 550.893 801.361 550.273C800.761 549.653 800.461 548.878 800.461 547.948C800.461 547.018 800.821 545.429 801.541 543.182C802.321 540.973 802.711 539.365 802.711 538.358C802.711 537.35 802.681 536.633 802.621 536.207C802.621 535.82 802.531 535.316 802.351 534.696C802.231 534.115 801.991 533.689 801.631 533.417C800.791 532.72 799.351 532.371 797.311 532.371C793.592 532.371 791.732 534.463 791.732 538.648L792.272 548.18C792.272 550.738 791.702 552.016 790.562 552.016C789.423 552.016 788.853 551.319 788.853 549.924Z" fill="white"/>
</svg>
